name analog
datacolumns 19
datarows 24
range 0.788 0.7995
endheader
time	ground_force_vx	ground_force_vy	ground_force_vz	ground_force_px	ground_force_py	ground_force_pz	l_ground_force_vx	l_ground_force_vy	l_ground_force_vz	l_ground_force_px	l_ground_force_py	l_ground_force_pz	ground_torque_x	ground_torque_y	ground_torque_z	l_ground_torque_x	l_ground_torque_y	l_ground_torque_z
0.788	-0.0	-0.0	-0.0	-0.0	-0.0	-0.0	33.54991912841797	-3.2335727214813232	-810.5265502929688	-0.0	-0.0	-0.0	-0.0	-0.0	-0.0	237439.5625	-87976.609375	9302.1201171875
0.7885	-0.0	-0.0	-0.0	-0.0	-0.0	-0.0	34.67095947265625	-3.0717458724975586	-811.4283447265625	-0.0	-0.0	-0.0	-0.0	-0.0	-0.0	237933.703125	-88672.25	9445.4873046875
0.789	-0.0	-0.0	-0.0	-0.0	-0.0	-0.0	35.7158203125	-3.214059591293335	-811.1473388671875	-0.0	-0.0	-0.0	-0.0	-0.0	-0.0	238100.734375	-88892.6328125	9915.00390625
0.7895	-0.0	-0.0	-0.0	-0.0	-0.0	-0.0	36.444786071777344	-3.836341619491577	-813.1058349609375	-0.0	-0.0	-0.0	-0.0	-0.0	-0.0	238730.609375	-89563.9375	10158.4482421875
0.79	-0.0	-0.0	-0.0	-0.0	-0.0	-0.0	37.00796890258789	-4.204832553863525	-814.2215576171875	-0.0	-0.0	-0.0	-0.0	-0.0	-0.0	239067.46875	-89891.609375	10318.6748046875
0.7905	-0.0	-0.0	-0.0	-0.0	-0.0	-0.0	36.743682861328125	-4.736302852630615	-816.0358276367188	-0.0	-0.0	-0.0	-0.0	-0.0	-0.0	239785.46875	-90231.9453125	10383.50390625
0.791	-0.0	-0.0	-0.0	-0.0	-0.0	-0.0	37.152381896972656	-4.875058174133301	-820.4376831054688	-0.0	-0.0	-0.0	-0.0	-0.0	-0.0	240706.359375	-90905.28125	10461.0947265625
0.7915	-0.0	-0.0	-0.0	-0.0	-0.0	-0.0	38.19939422607422	-5.423736095428467	-824.1405639648438	-0.0	-0.0	-0.0	-0.0	-0.0	-0.0	241850.59375	-91277.5078125	10907.0859375
0.792	-0.0	-0.0	-0.0	-0.0	-0.0	-0.0	39.58252716064453	-5.70490837097168	-827.3469848632812	-0.0	-0.0	-0.0	-0.0	-0.0	-0.0	242950.5	-91899.015625	11210.0458984375
0.7925	-0.0	-0.0	-0.0	-0.0	-0.0	-0.0	41.51763916015625	-6.3940958976745605	-831.0498657226562	-0.0	-0.0	-0.0	-0.0	-0.0	-0.0	243874.671875	-92372.0625	11608.943359375
0.793	-0.0	-0.0	-0.0	-0.0	-0.0	-0.0	43.07827758789063	-7.61316967010498	-836.501220703125	-0.0	-0.0	-0.0	-0.0	-0.0	-0.0	244923.109375	-92855.109375	12137.7802734375
0.7935	-0.0	-0.0	-0.0	-0.0	-0.0	-0.0	44.62213897705078	-8.79708480834961	-837.68408203125	-0.0	-0.0	-0.0	-0.0	-0.0	-0.0	245293.21875	-92850.15625	12601.3681640625
0.794	-0.0	-0.0	-0.0	-0.0	-0.0	-0.0	45.277793884277344	-10.17456340789795	-837.61474609375	-0.0	-0.0	-0.0	-0.0	-0.0	-0.0	245474.65625	-92813.625	12844.482421875
0.7945	-0.0	-0.0	-0.0	-0.0	-0.0	-0.0	45.22452926635742	-11.994142532348633	-838.31298828125	-0.0	-0.0	-0.0	-0.0	-0.0	-0.0	244836.40625	-92490.8984375	12956.7255859375
0.795	-0.0	-0.0	-0.0	-0.0	-0.0	-0.0	44.887657165527344	-13.58399772644043	-835.8690185546875	-0.0	-0.0	-0.0	-0.0	-0.0	-0.0	244381.109375	-92114.6328125	12884.8564453125
0.7955	-0.0	-0.0	-0.0	-0.0	-0.0	-0.0	43.91188430786133	-14.855671882629396	-832.4473266601562	-0.0	-0.0	-0.0	-0.0	-0.0	-0.0	243656.84375	-91948.453125	12628.7529296875
0.796	-0.0	-0.0	-0.0	-0.0	-0.0	-0.0	43.50385665893555	-15.72126007080078	-832.446533203125	-0.0	-0.0	-0.0	-0.0	-0.0	-0.0	242569.390625	-91540.484375	12752.74609375
0.7965	-0.0	-0.0	-0.0	-0.0	-0.0	-0.0	42.43981552124024	-16.622222900390625	-828.119140625	-0.0	-0.0	-0.0	-0.0	-0.0	-0.0	241797.25	-90751.703125	12514.5224609375
0.797	-0.0	-0.0	-0.0	-0.0	-0.0	-0.0	41.09095764160156	-17.416561126708984	-825.8865356445312	-0.0	-0.0	-0.0	-0.0	-0.0	-0.0	240519.6875	-90198.5234375	12216.7216796875
0.7975	-0.0	-0.0	-0.0	-0.0	-0.0	-0.0	38.98128509521485	-18.14156723022461	-821.6945190429688	-0.0	-0.0	-0.0	-0.0	-0.0	-0.0	239421.78125	-89710.703125	11622.2470703125
0.798	-0.0	-0.0	-0.0	-0.0	-0.0	-0.0	37.08203125	-18.353981018066406	-817.642578125	-0.0	-0.0	-0.0	-0.0	-0.0	-0.0	238136.5625	-88908.875	11169.7041015625
0.7985	-0.0	-0.0	-0.0	-0.0	-0.0	-0.0	34.68702697753906	-18.5307731628418	-813.0370483398438	-0.0	-0.0	-0.0	-0.0	-0.0	-0.0	237164.640625	-88205.125	10557.07421875
0.799	-0.0	-0.0	-0.0	-0.0	-0.0	-0.0	32.48736953735352	-18.03675651550293	-808.7156372070312	-0.0	-0.0	-0.0	-0.0	-0.0	-0.0	236012.8125	-87665.1640625	9796.0390625
0.7995	-0.0	-0.0	-0.0	-0.0	-0.0	-0.0	30.553977966308597	-17.083389282226562	-807.7295532226562	-0.0	-0.0	-0.0	-0.0	-0.0	-0.0	235365.28125	-87400.6171875	9165.9697265625
